HIERARCHY
ROOT Hips
{
	OFFSET 0.000000 0.000000 0.000000 
	CHANNELS 6 Xposition Yposition Zposition Zrotation Yrotation Xrotation
	JOINT LeftUpLeg
	{
		OFFSET 1.363060 -1.794630 0.839290 
		CHANNELS 3 Zrotation Yrotation Xrotation
		JOINT LeftLeg
		{
			OFFSET 2.448110 -6.726130 0.000000 
			CHANNELS 3 Zrotation Yrotation Xrotation
			JOINT LeftFoot
			{
				OFFSET 2.562200 -7.039590 0.000000 
				CHANNELS 3 Zrotation Yrotation Xrotation
				JOINT LeftToeBase
				{
					OFFSET 0.157640 -0.433110 2.322550 
					CHANNELS 3 Zrotation Yrotation Xrotation
					End Site
					{
						OFFSET 0.000000 0.000000 0.000000 
					}
				}
			}
		}
	}
	JOINT RightUpLeg
	{
		OFFSET -1.305520 -1.794630 0.839290 
		CHANNELS 3 Zrotation Yrotation Xrotation
		JOINT RightLeg
		{
			OFFSET -2.542530 -6.985550 0.000000 
			CHANNELS 3 Zrotation Yrotation Xrotation
			JOINT RightFoot
			{
				OFFSET -2.568260 -7.056230 0.000000 
				CHANNELS 3 Zrotation Yrotation Xrotation
				JOINT RightToeBase
				{
					OFFSET -0.164730 -0.452590 2.363150 
					CHANNELS 3 Zrotation Yrotation Xrotation
					End Site
					{
						OFFSET 0.000000 0.000000 0.000000 
					}
				}
			}
		}
	}
	JOINT Spine
	{
		OFFSET 0.028270 2.035590 -0.193380 
		CHANNELS 3 Zrotation Yrotation Xrotation
		JOINT Spine1
		{
			OFFSET 0.056720 2.048850 -0.042750 
			CHANNELS 3 Zrotation Yrotation Xrotation
			JOINT Neck1
			{
				OFFSET -0.054170 1.746240 0.172020 
				CHANNELS 3 Zrotation Yrotation Xrotation
				JOINT Head
				{
					OFFSET 0.104070 1.761360 -0.123970 
					CHANNELS 3 Zrotation Yrotation Xrotation
					End Site
					{
						OFFSET 0.000000 0.000000 0.000000 
					}
				}
			}
			JOINT LeftArm
			{
				OFFSET 3.362410 1.200890 -0.311210 
				CHANNELS 3 Zrotation Yrotation Xrotation
				JOINT LeftForeArm
				{
					OFFSET 4.983000 -0.000000 -0.000000 
					CHANNELS 3 Zrotation Yrotation Xrotation
					JOINT LeftHand
					{
						OFFSET 3.483560 -0.000000 -0.000000 
						CHANNELS 3 Zrotation Yrotation Xrotation
						JOINT LeftHandIndex1
						{
							OFFSET 0.715260 -0.000000 -0.000000 
							CHANNELS 3 Zrotation Yrotation Xrotation
							End Site
							{
								OFFSET 0.000000 0.000000 0.000000 
							}
						}
					}
				}
			}
			JOINT RightArm
			{
				OFFSET -3.136600 1.374050 -0.404650 
				CHANNELS 3 Zrotation Yrotation Xrotation
				JOINT RightForeArm
				{
					OFFSET -5.241900 -0.000000 -0.000000 
					CHANNELS 3 Zrotation Yrotation Xrotation
					JOINT RightHand
					{
						OFFSET -3.444170 -0.000000 -0.000000 
						CHANNELS 3 Zrotation Yrotation Xrotation
						JOINT RightHandIndex1
						{
							OFFSET -0.622530 -0.000000 -0.000000 
							CHANNELS 3 Zrotation Yrotation Xrotation
							End Site
							{
								OFFSET 0.000000 0.000000 0.000000 
							}
						}
					}
				}
			}
		}
	}
}
MOTION
Frames: 15
Frame Time: 0.041667
3.228604 16.381330 -0.760909 -114.801467 84.471894 -99.670476 -34.565074 -11.818979 -8.921321 1.879092 7.863160 20.039497 -2.705526 19.306132 27.769686 0.281700 -3.413800 -9.433100 51.884599 18.998703 2.453553 -2.044804 -3.577585 10.815553 -3.632249 -10.795789 -32.090736 -0.479300 4.439800 -12.317300 -4.636921 1.100270 -11.859208 1.105741 1.180348 9.342523 5.820143 41.136968 8.692968 178.148000 27.688100 26.122000 -52.343435 -12.510224 -40.993357 131.511010 -45.487562 -63.862137 -6.870492 2.996209 -6.070450 -7.125000 0.000000 0.000000 52.937885 -28.850789 95.979670 -98.402009 48.645246 -63.575848 -2.165046 -0.007928 11.689284 7.125000 0.000000 0.000000 
3.228959 16.380354 -0.760021 -115.466366 84.439433 -100.324219 -34.544586 -11.849044 -8.932678 1.882751 7.867074 20.054576 -2.718719 19.328817 27.744720 0.287600 -3.448700 -9.530600 51.889291 18.971213 2.439524 -2.039764 -3.571140 10.786759 -3.631094 -10.854340 -32.080245 -0.480700 4.446000 -12.334900 -4.599703 1.083480 -11.873428 1.099344 1.166907 9.355934 5.819503 41.165492 8.690256 178.216000 27.765600 26.165200 -52.348367 -12.409522 -41.007281 131.478316 -45.498107 -63.793865 -6.881944 2.978005 -6.155255 -7.125000 0.000000 0.000000 52.962813 -28.879209 95.931854 -98.454002 48.632102 -63.631652 -2.165010 -0.000619 11.700989 7.125000 0.000000 0.000000 
3.229314 16.379643 -0.758335 -115.828713 84.424948 -100.657322 -34.526530 -11.863433 -8.980821 1.888422 7.881204 20.087132 -2.734901 19.361743 27.718512 0.285900 -3.438800 -9.502900 51.882662 18.996478 2.382442 -2.039204 -3.580096 10.798408 -3.621833 -10.880581 -32.006628 -0.511400 4.583800 -12.725100 -4.596610 1.100512 -11.868900 1.066315 1.175547 9.375573 5.806831 41.000571 8.666269 178.261000 27.595700 26.139100 -52.327512 -12.434015 -41.049119 131.470280 -45.521582 -63.735103 -6.884070 2.945874 -6.184253 -7.125000 0.000000 0.000000 53.044316 -28.907407 95.845229 -98.430114 48.626675 -63.607469 -2.167462 0.003220 11.784029 7.125000 0.000000 0.000000 
3.229669 16.379022 -0.758424 -116.567889 84.447020 -101.363041 -34.559465 -11.927919 -8.985733 1.888039 7.886944 20.092151 -2.740588 19.393428 27.734035 0.290100 -3.463600 -9.572100 51.835662 19.047172 2.278466 -2.053525 -3.629407 10.919453 -3.624357 -10.860688 -32.039143 -0.513100 4.591500 -12.747000 -4.624002 1.113585 -11.993936 1.045331 1.188470 9.268168 5.827614 41.113359 8.695182 178.279000 27.724300 26.202500 -52.378054 -12.437267 -40.942974 131.463830 -45.533495 -63.732233 -6.871350 2.938081 -6.242653 -7.125000 0.000000 0.000000 53.059527 -29.113061 95.855821 -98.470473 48.603133 -63.650852 -2.162474 0.006762 11.933188 7.125000 0.000000 0.000000 
3.230734 16.378933 -0.757891 -117.607684 84.410964 -102.393125 -34.541018 -11.933078 -8.961028 1.888781 7.879337 20.079980 -2.771852 19.432066 27.660319 0.294100 -3.487100 -9.638000 51.841011 19.062800 2.185800 -2.060394 -3.686549 11.062766 -3.631849 -10.863336 -32.117439 -0.514900 4.599400 -12.769300 -4.622678 1.086302 -12.153124 1.030356 1.179561 9.117532 5.859379 41.300323 8.744132 178.282000 27.969000 26.274400 -52.462181 -12.283576 -40.795470 131.485217 -45.504904 -63.801624 -6.855537 2.939859 -6.256732 -7.125000 0.000000 0.000000 53.048312 -29.338953 95.920950 -98.506011 48.583600 -63.692605 -2.159115 0.002222 11.958422 7.125000 0.000000 0.000000 
3.232598 16.378312 -0.756915 -118.257426 84.443378 -103.033564 -34.590367 -11.944773 -8.925874 1.886819 7.872167 20.053032 -2.796439 19.493395 27.658628 0.295700 -3.496600 -9.664700 51.793803 19.085225 2.130980 -2.073918 -3.722680 11.157441 -3.638759 -10.844447 -32.179940 -0.520000 4.621700 -12.832800 -4.611317 1.081814 -12.159623 1.055998 1.169454 9.136292 5.845984 41.254169 8.729558 178.321000 28.028900 26.270100 -52.518128 -12.223997 -40.776354 131.492640 -45.484667 -63.845524 -6.833309 2.964051 -6.211445 -7.125000 0.000000 0.000000 53.049761 -29.391133 95.896237 -98.543648 48.569836 -63.731446 -2.163261 -0.003498 11.958362 7.125000 0.000000 0.000000 
3.232775 16.377957 -0.755228 -118.317520 84.488974 -103.076446 -34.632878 -11.937441 -8.934904 1.879751 7.863278 20.025009 -2.782698 19.467619 27.675118 0.295100 -3.492900 -9.654100 51.753481 19.108175 2.115696 -2.080326 -3.720700 11.148120 -3.642395 -10.834876 -32.211520 -0.510600 4.580500 -12.715900 -4.584457 1.096786 -12.109569 1.081465 1.168644 9.222687 5.833698 41.199372 8.702588 178.325000 28.047100 26.264700 -52.552808 -12.259618 -40.900866 131.468995 -45.520863 -63.752835 -6.820969 2.942489 -6.036928 -7.125000 0.000000 0.000000 53.055002 -29.344482 95.827210 -98.550058 48.563459 -63.728170 -2.162889 0.000646 12.028525 7.125000 0.000000 0.000000 
3.231621 16.377602 -0.753187 -117.647872 84.479079 -102.387707 -34.594001 -11.938407 -8.925663 1.866237 7.838346 19.957719 -2.734551 19.371791 27.723637 0.289900 -3.462800 -9.569900 51.790151 19.180406 2.061493 -2.079157 -3.746078 11.212594 -3.643620 -10.827446 -32.238800 -0.501200 4.538600 -12.597100 -4.585900 1.130668 -12.294574 1.033937 1.206277 9.054761 5.867801 41.186541 8.727238 178.269000 28.042200 26.270400 -52.567572 -12.167030 -40.790168 131.454765 -45.531396 -63.720057 -6.810389 2.925750 -5.894367 -7.125000 0.000000 0.000000 53.103330 -29.520644 95.891709 -98.503869 48.553053 -63.690478 -2.157105 0.003605 12.101090 7.125000 0.000000 0.000000 
3.232598 16.378845 -0.752566 -118.068474 84.476841 -102.812602 -34.600686 -11.896358 -8.883505 1.851177 7.803899 19.889138 -2.694534 19.256442 27.711975 0.286200 -3.440400 -9.507400 51.795391 19.188018 2.030955 -2.085292 -3.776816 11.298554 -3.645997 -10.767728 -32.266629 -0.494800 4.509900 -12.515800 -4.558542 1.099192 -12.404105 1.012083 1.193222 8.959928 5.863349 41.080286 8.719826 178.274000 27.808400 26.237200 -52.602150 -12.018203 -40.750835 131.466081 -45.502709 -63.778070 -6.807541 2.928634 -5.926715 -7.125000 0.000000 0.000000 53.072490 -29.560618 95.982847 -98.478076 48.554236 -63.674316 -2.151183 -0.003634 12.006393 7.125000 0.000000 0.000000 
3.232775 16.379643 -0.752211 -119.211937 84.561594 -103.980912 -34.714120 -11.891312 -8.815555 1.838816 7.779036 19.840232 -2.664998 19.197770 27.752037 0.278500 -3.394100 -9.378000 51.710992 19.170168 2.024831 -2.101212 -3.801373 11.373000 -3.648610 -10.791286 -32.271573 -0.512500 4.588900 -12.739600 -4.511289 1.059872 -12.182923 1.068173 1.141229 9.215945 5.820497 41.003787 8.654750 178.278000 27.694700 26.211200 -52.588359 -12.174646 -41.082262 131.486850 -45.503316 -63.794027 -6.833738 2.906582 -5.902701 -7.125000 0.000000 0.000000 53.049560 -29.271830 95.863174 -98.475129 48.564143 -63.657332 -2.155190 -0.003696 11.881203 7.125000 0.000000 0.000000 
3.232332 16.379022 -0.751057 -120.088197 84.606433 -104.861397 -34.774666 -11.888957 -8.780333 1.829267 7.759872 19.799532 -2.639946 19.150915 27.786177 0.276700 -3.383300 -9.347800 51.646922 19.194478 1.964927 -2.115783 -3.839601 11.474355 -3.651345 -10.810853 -32.293169 -0.516400 4.606000 -12.788200 -4.482788 1.045111 -12.010602 1.094082 1.112546 9.425391 5.800465 41.003785 8.611740 178.268000 27.754300 26.221500 -52.523066 -12.368450 -41.335104 131.473856 -45.521016 -63.757545 -6.868047 2.896646 -5.902172 -7.125000 0.000000 0.000000 53.056738 -29.079364 95.731671 -98.509330 48.560732 -63.686656 -2.157024 -0.002808 11.920941 7.125000 0.000000 0.000000 
3.232332 16.378578 -0.750081 -120.523956 84.582707 -105.250399 -34.759395 -11.878373 -8.815846 1.826215 7.753234 19.775643 -2.679716 19.185113 27.663677 0.285100 -3.434200 -9.489900 51.632064 19.272209 1.831455 -2.125417 -3.890069 11.591398 -3.656166 -10.784826 -32.359611 -0.505800 4.559200 -12.655500 -4.455388 1.034484 -12.060641 1.077778 1.107470 9.427657 5.803498 41.126147 8.614881 178.344000 27.932000 26.304800 -52.517704 -12.379165 -41.286145 131.484288 -45.493552 -63.832234 -6.866563 2.919556 -5.925031 -7.125000 0.000000 0.000000 53.022657 -29.149870 95.756747 -98.606597 48.535873 -63.795448 -2.157210 -0.001353 12.032740 7.125000 0.000000 0.000000 
3.231977 16.379200 -0.748749 -121.447110 84.552051 -106.140304 -34.736160 -11.900379 -8.858636 1.826178 7.755360 19.789930 -2.684755 19.165216 27.594464 0.286700 -3.443400 -9.515600 51.629546 19.274430 1.764876 -2.126630 -3.903129 11.609231 -3.656982 -10.771514 -32.378144 -0.499300 4.530200 -12.573300 -4.416698 0.997765 -12.135113 1.076192 1.084263 9.403498 5.800900 41.182253 8.612620 178.413000 28.040500 26.357200 -52.566549 -12.290877 -41.230743 131.494116 -45.463089 -63.899926 -6.846767 2.942987 -5.925075 -7.125000 0.000000 0.000000 52.954459 -29.172113 95.831290 -98.664298 48.524618 -63.858335 -2.154822 0.000276 12.016915 7.125000 0.000000 0.000000 
3.232243 16.379288 -0.747773 -122.048127 84.506013 -106.719503 -34.696409 -11.959697 -8.883644 1.831886 7.764861 19.811442 -2.695741 19.205069 27.601357 0.284800 -3.432200 -9.484300 51.652917 19.258751 1.734992 -2.124705 -3.906497 11.608158 -3.659187 -10.720133 -32.408798 -0.481100 4.447900 -12.340200 -4.364714 0.994326 -12.154943 1.074635 1.076318 9.430689 5.793001 41.222626 8.603948 178.469000 28.135800 26.401400 -52.658791 -12.225762 -41.187255 131.536362 -45.424552 -64.011905 -6.808307 2.954312 -5.961709 -7.125000 0.000000 0.000000 52.923374 -29.187905 95.791107 -98.718045 48.511293 -63.905626 -2.147306 0.004424 11.976517 7.125000 0.000000 0.000000 
3.232687 16.379022 -0.747684 -122.687207 84.466839 -107.354328 -34.668767 -12.006552 -8.888013 1.831421 7.763511 19.820734 -2.679642 19.165079 27.595780 0.284400 -3.429700 -9.477400 51.678659 19.223307 1.730811 -2.119339 -3.906756 11.603045 -3.659131 -10.740638 -32.408037 -0.496900 4.519200 -12.542000 -4.396781 1.033343 -12.162092 1.011357 1.101901 9.433478 5.807679 41.242900 8.612111 178.495000 28.302200 26.449200 -52.641354 -12.360534 -41.056818 131.533663 -45.431219 -64.033280 -6.783709 2.976034 -5.946984 -7.125000 0.000000 0.000000 53.012745 -29.326146 95.654257 -98.768702 48.486780 -63.954030 -2.136696 0.019005 12.037615 7.125000 0.000000 0.000000 
